<svg id="e4f90679-bf5c-494c-ba8c-46c294a31e1f" data-name="图层 1" xmlns="http://www.w3.org/2000/svg" xmlns:xlink="http://www.w3.org/1999/xlink" viewBox="0 0 64.5953 11.6943"><defs><style>.f38985a2-7f10-4993-96fd-42db8cbc559b{fill:url(#e072e06d-605a-4e0c-a223-3f07608670bc);}.aabf66db-187d-4d3e-bd74-1a073dbfefb2{fill:#fff;}</style><linearGradient id="e072e06d-605a-4e0c-a223-3f07608670bc" x1="0.2014" y1="5.8471" x2="64.7967" y2="5.8471" gradientUnits="userSpaceOnUse"><stop offset="0.0109" stop-color="#1d2088"/><stop offset="1" stop-color="#00a29a"/></linearGradient></defs><rect class="f38985a2-7f10-4993-96fd-42db8cbc559b" width="64.5953" height="11.6943" rx="3"/><path class="aabf66db-187d-4d3e-bd74-1a073dbfefb2" d="M1.0507,3.3833a.173.173,0,0,0,.042.0181.4358.4358,0,0,0,.1138-.0181.9075.9075,0,0,1,.6479.1563q0,.1794-.414.18h-.084l.03.1143a.3278.3278,0,0,0-.0361.168v.03a18.6784,18.6784,0,0,1-.1919,2.8682c-.0044,0-.0063.0059-.0063.0181a3.5487,3.5487,0,0,0,.39-.03.5607.5607,0,0,1,.4561.2041l-.0962.1079q-.4256.0183-.666.0181H.6244a1.1669,1.1669,0,0,1-.4018-.0957V7.0073a.6716.6716,0,0,0,.1679-.03c.0557.0118.086.0176.09.0176a2.317,2.317,0,0,0,.39-.042.9141.9141,0,0,0-.018-.21l.186-2.97c-.0083-.0522-.02-.0781-.0361-.0781H.9364q-.6723-.0358-.7377-.18c.02-.0356.1376-.0639.354-.0839l.0659.018A2.0139,2.0139,0,0,0,1.0507,3.3833Z"/><path class="aabf66db-187d-4d3e-bd74-1a073dbfefb2" d="M2.5322,4.6914c.0244,0,.0361.002.0361.0059l.0058-.0059h.0245c.04.04.07.06.09.06l.06-.0122a.7341.7341,0,0,1,.228.7138l.2759-.4316c0-.0161.042-.062.1259-.1382v-.03h.0782V4.8354h.1079V4.8291l-.0181-.0537.084-.06c0,.04.0039.062.0122.0659l.0117-.0361a.6219.6219,0,0,1,.3062.57,2.2847,2.2847,0,0,1,.03.378q-.0177.438-.0176.8159l.0058.1621q.1018,0,.3-.33h.0542v.0479a.7261.7261,0,0,1-.2338.5581c0,.0283-.0542.0639-.1622.1079q-.24,0-.3061-.378c.0078-.0717.0122-.122.0122-.15q0-.2819.0356-.93,0-.4916-.1015-.4917-.2645,0-.5884.9658-.1677,1.122-.3418,1.1221a.124.124,0,0,1-.0659.018q-.12-.1142-.12-.186A14.0281,14.0281,0,0,0,2.6645,5.25c.0317-.2,0-.3-.0962-.3l-.09-.1318V4.77C2.4784,4.7173,2.4965,4.6914,2.5322,4.6914Z"/><path class="aabf66db-187d-4d3e-bd74-1a073dbfefb2" d="M5.7724,4.0791a.1614.1614,0,0,1,.126.1621q.0176.5282.018.6724c-.0122.18-.018.2719-.018.2759a3.9977,3.9977,0,0,1,.6357-.0962q.1743.0241.1743.1562a.5109.5109,0,0,1-.3779.1978q-.0125,0-.438.0722-.0424.504-.0542,1.11a1.1833,1.1833,0,0,0,.0181.12q.312-.1085.78-.9722h.0961a3.5817,3.5817,0,0,1-.5942,1.1519.8313.8313,0,0,1-.24.1924c0,.0278-.0479.0517-.1441.0718-.084,0-.1763-.084-.2759-.252l.0181-.0361a1.1177,1.1177,0,0,1-.03-.2759q0-.3361.06-1.05l-.0718.0244-.2163.06H5.0761q-.39-.0543-.39-.1621V5.4292l.1919.0361A2.6938,2.6938,0,0,0,5.5444,5.31q.06-1.23.1919-1.23Z"/><path class="aabf66db-187d-4d3e-bd74-1a073dbfefb2" d="M8.31,4.6914q.3961.09.396.582,0,.6783-1.0918.9121c0,.0518-.0239.0777-.0723.0777h-.09a.8935.8935,0,0,0-.0122.1142q.0541.5157.3784.5162c0,.0117.0278.0175.084.0175H7.92a1.8619,1.8619,0,0,0,.9419-.3418v.0718a1.6367,1.6367,0,0,1-.8642.54l-.24.0361-.084-.0479c.044,0,.066.0181.066.0537a.7184.7184,0,0,1-.438-.2519,1.2479,1.2479,0,0,1-.1739-.6118c.0079-.148.0176-.2222.03-.2222a.715.715,0,0,1-.021-.12c-.0141-.0923-.0088-.1382.0152-.1382H7.2q.0058,0,.24-.5762A1.09,1.09,0,0,1,8.31,4.6914ZM7.5541,5.9092v.018H7.4462q.9-.276.9-.63V5.2251c0-.1-.0439-.15-.1318-.15a.9354.9354,0,0,0-.51.45A1.2659,1.2659,0,0,0,7.5541,5.9092Z"/><path class="aabf66db-187d-4d3e-bd74-1a073dbfefb2" d="M9.3661,3.3535h.0777a2.31,2.31,0,0,0,.36.168H9.66V3.4434H9.768c0,.0478-.0142.0717-.042.0717V3.4614H9.84l.0063.042H9.84q.1083,0,.144.5938,0,.2043-.1558,2.6279H9.75a4.0942,4.0942,0,0,0,.5459-.7617h.1079a3.9356,3.9356,0,0,1-.5156,1.05H9.8818l.0063.018v.0723a.118.118,0,0,0-.0962.06.1542.1542,0,0,0-.1138.0478h-.09c-.0317,0-.082-.0522-.15-.1562l.0239-.1441a.1059.1059,0,0,0-.018-.0537L9.6781,4.02a.58.58,0,0,1-.018-.1259l.018-.1084a1.9942,1.9942,0,0,0-.312-.3658Z"/><path class="aabf66db-187d-4d3e-bd74-1a073dbfefb2" d="M10.8842,3.3535h.0776a2.3188,2.3188,0,0,0,.36.168h-.1441V3.4434h.108c0,.0478-.0142.0717-.042.0717V3.4614h.1137l.0064.042h-.0064q.1084,0,.1441.5938,0,.2043-.1558,2.6279H11.268a4.0989,4.0989,0,0,0,.5459-.7617h.1079a3.9386,3.9386,0,0,1-.5156,1.05H11.4l.0064.018v.0723a.1179.1179,0,0,0-.0962.06.154.154,0,0,0-.1138.0478h-.09c-.0318,0-.0821-.0522-.15-.1562l.0239-.1441a.1061.1061,0,0,0-.0181-.0537L11.1962,4.02a.5807.5807,0,0,1-.0181-.1259l.0181-.1084a1.9942,1.9942,0,0,0-.312-.3658Z"/><path class="aabf66db-187d-4d3e-bd74-1a073dbfefb2" d="M13.3979,5.1592c.1084.08.1621.1343.1621.1621q-.156,1.278-.1558,1.41h-.0063a3.6088,3.6088,0,0,0,.4682-.996h.1021V5.79a2.3774,2.3774,0,0,1-.42,1.2539.5484.5484,0,0,1-.3184.1679c-.0679-.0522-.1016-.084-.1016-.0962-.0083,0-.03-.0317-.0664-.0957l.0362-.06V6.9233c0,.0039-.0118.0059-.0362.0059.0122-.084.03-.1777.0542-.2817,0,.0957-.018.144-.0542.144l.0181-.1143V6.6294a7.3945,7.3945,0,0,1,.1563-1.104h.102a2.4,2.4,0,0,1-.72.4077h-.09a.0636.0636,0,0,1-.0722-.0718.21.21,0,0,1,.1142-.102c.06.0322.06.0478,0,.0478l.4019-.2876a.7786.7786,0,0,1,.2578-.186Q13.3442,5.1592,13.3979,5.1592Zm-.5157-.9536.03.0117a.1317.1317,0,0,1,.066-.0117.7057.7057,0,0,1,.186.0478l.0781-.018q.4738.1977.4741.4921l-.12.0718a3.0954,3.0954,0,0,0-.8281-.4678V4.23Z"/><path class="aabf66db-187d-4d3e-bd74-1a073dbfefb2" d="M15.3359,4.6792h.03c.1836,0,.292.1221.3238.3662l.0122.084.0659-.0122q.156,0,.1558.2881a1.7142,1.7142,0,0,1,0,.5522,9.074,9.074,0,0,1-.24,2.0518q-.186.2579-.3061.2583c0,.02-.0459.042-.1377.0659a.8751.8751,0,0,1-.45-.1382.5163.5163,0,0,1-.1978-.456V7.7212q0-.5157,1.0078-1.542l.0181-.0718a1.0523,1.0523,0,0,1,.0659-.396l-.33.378a2.12,2.12,0,0,1-.4077.312.6946.6946,0,0,1-.144.018H14.79q-.192,0-.2642-.3061c0-.0161.0039-.0239.0122-.0239l-.0122-.0542v-.15a1.5379,1.5379,0,0,1,.5942-1.14A.8366.8366,0,0,1,15.3359,4.6792Zm-.5337,1.272.042.2041a1.3347,1.3347,0,0,0,.6479-.5821c0-.0039.0259-.0556.0776-.1557V5.4111q-.1017-.4856-.1855-.4858-.2586,0-.5225.6719A2.2466,2.2466,0,0,0,14.8022,5.9512Zm.06,1.7461v.0239a.2964.2964,0,0,0,.27.3061q.4079,0,.4682-1.6679V6.3115A2.65,2.65,0,0,0,14.8617,7.6973Z"/><path class="aabf66db-187d-4d3e-bd74-1a073dbfefb2" d="M17.5556,4.6914q.3962.09.396.582,0,.6783-1.0918.9121c0,.0518-.0239.0777-.0723.0777h-.09a.8935.8935,0,0,0-.0122.1142q.0541.5157.3784.5162c0,.0117.0278.0175.084.0175h.018a1.8619,1.8619,0,0,0,.9419-.3418v.0718a1.6367,1.6367,0,0,1-.8642.54l-.24.0361-.084-.0479c.044,0,.066.0181.066.0537a.7184.7184,0,0,1-.438-.2519,1.2479,1.2479,0,0,1-.1739-.6118c.0079-.148.0176-.2222.03-.2222a.715.715,0,0,1-.021-.12c-.0141-.0923-.0088-.1382.0152-.1382h.0478q.0059,0,.24-.5762A1.09,1.09,0,0,1,17.5556,4.6914ZM16.8,5.9092v.018h-.1079q.9-.276.9-.63V5.2251c0-.1-.0439-.15-.1318-.15a.9354.9354,0,0,0-.51.45A1.2659,1.2659,0,0,0,16.8,5.9092Z"/><path class="aabf66db-187d-4d3e-bd74-1a073dbfefb2" d="M18.6894,4.6914c.0244,0,.0361.002.0361.0059l.0059-.0059h.0244c.04.04.07.06.09.06l.06-.0122a.7339.7339,0,0,1,.228.7138l.2759-.4316c0-.0161.042-.062.126-.1382v-.03h.0781V4.8354h.1079V4.8291l-.0181-.0537.084-.06c0,.04.0039.062.0122.0659l.0117-.0361a.6219.6219,0,0,1,.3062.57,2.2705,2.2705,0,0,1,.03.378q-.0176.438-.0176.8159l.0059.1621q.1017,0,.3-.33H20.49v.0479a.7261.7261,0,0,1-.2339.5581c0,.0283-.0542.0639-.1621.1079q-.24,0-.3062-.378c.0078-.0717.0122-.122.0122-.15q0-.2819.0357-.93,0-.4916-.1016-.4917-.2644,0-.5884.9658-.1677,1.122-.3418,1.1221a.124.124,0,0,1-.0659.018q-.12-.1142-.12-.186A14.0281,14.0281,0,0,0,18.8217,5.25c.0317-.2,0-.3-.0962-.3l-.09-.1318V4.77C18.6357,4.7173,18.6537,4.6914,18.6894,4.6914Z"/><path class="aabf66db-187d-4d3e-bd74-1a073dbfefb2" d="M21.93,4.0791a.1614.1614,0,0,1,.126.1621q.0175.5282.0181.6724c-.0123.18-.0181.2719-.0181.2759a3.9977,3.9977,0,0,1,.6357-.0962q.1743.0241.1743.1562a.5108.5108,0,0,1-.3779.1978q-.0125,0-.438.0722-.0425.504-.0542,1.11a1.1833,1.1833,0,0,0,.0181.12q.312-.1085.78-.9722H22.89a3.5843,3.5843,0,0,1-.5943,1.1519.8313.8313,0,0,1-.24.1924c0,.0278-.0479.0517-.1441.0718-.0839,0-.1762-.084-.2758-.252l.018-.0361a1.118,1.118,0,0,1-.03-.2759q0-.3361.06-1.05l-.0718.0244-.2163.06h-.1621q-.39-.0543-.39-.1621V5.4292l.1919.0361a2.6927,2.6927,0,0,0,.666-.1557q.06-1.23.1919-1.23Z"/><path class="aabf66db-187d-4d3e-bd74-1a073dbfefb2" d="M25.811,3.3413c0,.0278.0459.0723.1386.1318a2.3226,2.3226,0,0,1,.0957.7862v.15q0,.6365-.1679,2.43l-.0118-.024a9.3294,9.3294,0,0,0,1.2364-.15q.5331.0117.5332.084c0,.0117.0117.03.0351.0537v.06c-.0664.1123-.2265.1679-.4785.1679-.0254,0-.0371-.0019-.0371-.0058l-.0059.0058h-.0664q-.1,0-1.2294.1324a.2866.2866,0,0,0-.1436.0478h-.0542a.3785.3785,0,0,1-.2041-.3,7.608,7.608,0,0,0,.186-1.3437A9.54,9.54,0,0,0,25.75,4.2231V4.1636q0-.1384-.0176-.396l.0176-.03a1.9074,1.9074,0,0,0-.0771-.312.18.18,0,0,0,.0117-.0659h.0537C25.7426,3.3472,25.767,3.3413,25.811,3.3413Z"/><path class="aabf66db-187d-4d3e-bd74-1a073dbfefb2" d="M29.2612,4.6914c.2636.06.3964.2539.3964.582q0,.6783-1.0927.9121c0,.0518-.0235.0777-.0713.0777h-.09a.7562.7562,0,0,0-.0127.1142q.0543.5157.378.5162c0,.0117.0283.0175.084.0175h.0185a1.8576,1.8576,0,0,0,.9414-.3418v.0718a1.6341,1.6341,0,0,1-.8633.54l-.24.0361-.084-.0479c.044,0,.0654.0181.0654.0537a.7178.7178,0,0,1-.4375-.2519,1.2477,1.2477,0,0,1-.1738-.6118q.0117-.222.0293-.2222a.7022.7022,0,0,1-.02-.12c-.0137-.0923-.0088-.1382.0147-.1382h.0478c.0049,0,.084-.1919.24-.5762A1.091,1.091,0,0,1,29.2612,4.6914Zm-.7559,1.2178v.018h-.1084q.9009-.276.9-.63V5.2251c0-.1-.044-.15-.1318-.15a.9326.9326,0,0,0-.51.45A1.2584,1.2584,0,0,0,28.5053,5.9092Z"/><path class="aabf66db-187d-4d3e-bd74-1a073dbfefb2" d="M31.2231,4.6792h.09q.252,0,.3125.5459c.0591,0,.0894.102.0894.3061a5.3621,5.3621,0,0,0,.1738.9961,2.8339,2.8339,0,0,1,.09-.4018h.0479l.0488.63.0654.0122c0,.08-.0078.12-.0234.12l.0117.0239a.7432.7432,0,0,0-.1445.2823l-.0781.0239c-.1436-.0361-.2158-.0781-.2158-.126l.0185-.084a.396.396,0,0,0-.0962-.0058V6.96l.0361-.0542V6.8936a1.7258,1.7258,0,0,1-.1972-.5044,1.5812,1.5812,0,0,1-.6426.8222c-.0918.0078-.168.0117-.2275.0117h-.0127a.4756.4756,0,0,1-.3418-.45,1.6582,1.6582,0,0,1-.0176-.24,2.3614,2.3614,0,0,1,.7734-1.7461A.4675.4675,0,0,1,31.2231,4.6792Zm-.7383,1.8v.1318c.0283.1841.082.2759.1621.2759a.9838.9838,0,0,0,.5342-.54,3.0546,3.0546,0,0,0,.1865-.66l-.03-.0239.0117-.042v.0058l-.0117.0059h-.0244c-.0273,0-.042-.0161-.042-.0479q.0483-.0841.1084-.186a.91.91,0,0,0,.0176-.1562.3461.3461,0,0,0-.0957-.2637h-.0479c-.1279,0-.3125.1977-.5517.5937A2.4986,2.4986,0,0,0,30.4848,6.48Zm1.1465.5459h.0532v.0659h-.0532Z"/><path class="aabf66db-187d-4d3e-bd74-1a073dbfefb2" d="M33.1845,4.6792h.0664a.4215.4215,0,0,0,.06.0483V4.6792h.0781a.4112.4112,0,0,1,.18.3359c.0127.1084.0185.1783.0185.21,0,.0483-.0107.186-.03.4141h-.0782q.3488-.57.42-.6538l.0839-.066v-.018l-.03-.06.0664-.0478h.0244V4.77h.0654c.02,0,.03.002.03.0059L34.15,4.77c.1045.0279.2158.1719.336.4317l.2226.5639v.09c-.0283,0-.0508.0659-.0664.1977h-.0781q-.1435,0-.2822-.3178h.0244l-.2217-.606h-.0244a2.91,2.91,0,0,0-.5283.9419,2.3637,2.3637,0,0,0-.12.5581q-.186.5457-.4013.5459l-.0723-.1441V6.9653a12.7468,12.7468,0,0,0,.2939-1.728V5.0815h.0059a4.1266,4.1266,0,0,0-.51.1978H32.662c-.0478,0-.0713-.0317-.0713-.0962.2842-.2759.48-.4136.5879-.4136l.0059.0059Z"/><path class="aabf66db-187d-4d3e-bd74-1a073dbfefb2" d="M35.1581,4.6914c.0244,0,.0362.002.0362.0059L35.2,4.6914h.0244c.04.04.0694.06.09.06l.0595-.0122a.731.731,0,0,1,.2286.7138l.2754-.4316c0-.0161.0419-.062.1269-.1382v-.03h.0772V4.8354H36.19V4.8291l-.0176-.0537.084-.06c0,.04.0039.062.0117.0659l.0117-.0361a.6215.6215,0,0,1,.3057.57,2.1055,2.1055,0,0,1,.03.378q-.0176.438-.0175.8159l.0058.1621q.1026,0,.3-.33h.0537v.0479a.7237.7237,0,0,1-.2334.5581c0,.0283-.0547.0639-.1621.1079q-.24,0-.3056-.378c.0078-.0717.0117-.122.0117-.15q0-.2819.0361-.93,0-.4916-.1025-.4917-.2637,0-.5879.9658-.1684,1.122-.3418,1.1221a.1257.1257,0,0,1-.0664.018q-.12-.1142-.12-.186A13.8366,13.8366,0,0,0,35.29,5.25c.0322-.2,0-.3-.0957-.3l-.09-.1318V4.77C35.1044,4.7173,35.122,4.6914,35.1581,4.6914Z"/><path class="aabf66db-187d-4d3e-bd74-1a073dbfefb2" d="M38.3925,5.1592c.1084.08.1621.1343.1621.1621q-.1553,1.278-.1562,1.41h-.0059a3.5973,3.5973,0,0,0,.4678-.996h.1025V5.79a2.3809,2.3809,0,0,1-.42,1.2539.5468.5468,0,0,1-.3184.1679c-.0673-.0522-.1015-.084-.1015-.0962-.0078,0-.03-.0317-.0664-.0957l.0361-.06V6.9233c0,.0039-.0117.0059-.0361.0059.0117-.084.03-.1777.0537-.2817,0,.0957-.0176.144-.0537.144l.0185-.1143V6.6294a7.43,7.43,0,0,1,.1553-1.104h.1025a2.4062,2.4062,0,0,1-.72.4077h-.0908a.0631.0631,0,0,1-.0713-.0718.2073.2073,0,0,1,.1133-.102c.06.0322.06.0478,0,.0478l.4023-.2876q.0175-.0483.2578-.186C38.3007,5.2173,38.3564,5.1592,38.3925,5.1592Zm-.5156-.9536.03.0117a.1268.1268,0,0,1,.0654-.0117.717.717,0,0,1,.1865.0478l.0772-.018q.4746.1977.4746.4921l-.12.0718a3.0864,3.0864,0,0,0-.8281-.4678V4.23Z"/><path class="aabf66db-187d-4d3e-bd74-1a073dbfefb2" d="M39.6464,4.6914c.0244,0,.0361.002.0361.0059l.0059-.0059h.0244c.04.04.0694.06.09.06l.0595-.0122a.7308.7308,0,0,1,.2285.7138l.2754-.4316c0-.0161.042-.062.127-.1382v-.03H40.57V4.8354h.1084V4.8291l-.0175-.0537.0839-.06c0,.04.0039.062.0118.0659l.0117-.0361a.6214.6214,0,0,1,.3056.57,2.0977,2.0977,0,0,1,.03.378q-.0175.438-.0176.8159l.0059.1621q.1026,0,.3-.33h.0537v.0479a.7237.7237,0,0,1-.2334.5581c0,.0283-.0547.0639-.1621.1079-.16,0-.2617-.126-.3057-.378.0079-.0717.0118-.122.0118-.15q0-.2819.0361-.93,0-.4916-.1025-.4917-.2637,0-.5879.9658-.1684,1.122-.3418,1.1221a.1257.1257,0,0,1-.0664.018q-.12-.1142-.12-.186A13.8177,13.8177,0,0,0,39.7782,5.25c.0323-.2,0-.3-.0957-.3l-.09-.1318V4.77C39.5927,4.7173,39.61,4.6914,39.6464,4.6914Z"/><path class="aabf66db-187d-4d3e-bd74-1a073dbfefb2" d="M42.6474,4.6792h.0293c.1846,0,.292.1221.3242.3662l.0117.084.0664-.0122c.1035,0,.1563.0962.1563.2881a1.7761,1.7761,0,0,1,0,.5522,9.075,9.075,0,0,1-.24,2.0518c-.124.1719-.2255.2583-.3056.2583,0,.02-.0469.042-.1387.0659a.871.871,0,0,1-.4492-.1382.5144.5144,0,0,1-.1983-.456V7.7212q0-.5157,1.0079-1.542l.0175-.0718a1.0517,1.0517,0,0,1,.0664-.396l-.33.378a2.099,2.099,0,0,1-.4082.312.6842.6842,0,0,1-.1436.018h-.0117c-.1289,0-.2168-.102-.2647-.3061,0-.0161.0039-.0239.0118-.0239l-.0118-.0542v-.15a1.539,1.539,0,0,1,.5938-1.14A.839.839,0,0,1,42.6474,4.6792Zm-.5342,1.272.042.2041a1.3314,1.3314,0,0,0,.6475-.5821c0-.0039.0263-.0556.0781-.1557V5.4111c-.0674-.3237-.13-.4858-.1856-.4858-.1718,0-.3466.2241-.5224.6719A2.2934,2.2934,0,0,0,42.1132,5.9512Zm.06,1.7461v.0239a.296.296,0,0,0,.27.3061q.4072,0,.4678-1.6679V6.3115A2.65,2.65,0,0,0,42.1728,7.6973Z"/><path class="aabf66db-187d-4d3e-bd74-1a073dbfefb2" d="M46.038,3.3472c.0518,0,.165.0063.3418.018a.1093.1093,0,0,1,.0537-.018,3.2443,3.2443,0,0,1,1.2959.3842l.252.2339a1.12,1.12,0,0,1,.0664.4258,1.2434,1.2434,0,0,1-.4922.7022,2.0308,2.0308,0,0,1-1.1338.3242,4.7464,4.7464,0,0,1-.1982,1.7041c-.044.0517-.0743.0776-.09.0776q-.1318,0-.1318-.45a11.889,11.889,0,0,1,.1074-1.3921c-.0322,0-.0479-.018-.0479-.0542V5.2676h.0538q.0425-.438.2461-1.74-.485-.0541-.4854-.144A.3572.3572,0,0,1,46.038,3.3472Zm.5391.2343V3.5693q0,.4021-.1319,1.6558A2.172,2.172,0,0,0,47.4716,4.71a.9388.9388,0,0,0,.2275-.4444Q47.6991,3.8755,46.5771,3.5815Z"/><path class="aabf66db-187d-4d3e-bd74-1a073dbfefb2" d="M48.5575,3.3535h.0782a2.3364,2.3364,0,0,0,.36.168h-.1445V3.4434H48.96c0,.0478-.0137.0717-.042.0717V3.4614h.1143l.0058.042h-.0058c.0712,0,.12.1978.1435.5938q0,.2043-.1562,2.6279h-.0772a4.122,4.122,0,0,0,.5459-.7617h.1074a3.9356,3.9356,0,0,1-.5156,1.05h-.0059l.0059.018v.0723a.1166.1166,0,0,0-.0957.06.1545.1545,0,0,0-.1143.0478h-.09c-.0322,0-.082-.0522-.15-.1562l.0244-.1441a.1123.1123,0,0,0-.0185-.0537L48.87,4.02a.6191.6191,0,0,1-.0185-.1259l.0185-.1084a2.0118,2.0118,0,0,0-.3125-.3658Z"/><path class="aabf66db-187d-4d3e-bd74-1a073dbfefb2" d="M50.9814,4.6792h.09q.252,0,.3125.5459c.06,0,.09.102.09.3061a5.3621,5.3621,0,0,0,.1738.9961,2.8339,2.8339,0,0,1,.09-.4018h.0479l.0488.63.0654.0122c0,.08-.0078.12-.0234.12l.0117.0239a.7432.7432,0,0,0-.1445.2823l-.0781.0239c-.1436-.0361-.2159-.0781-.2159-.126l.0186-.084a.4016.4016,0,0,0-.0967-.0058V6.96l.0362-.0542V6.8936a1.7236,1.7236,0,0,1-.1973-.5044,1.5812,1.5812,0,0,1-.6426.8222c-.0918.0078-.168.0117-.2275.0117h-.0127a.4756.4756,0,0,1-.3418-.45,1.6582,1.6582,0,0,1-.0176-.24,2.3614,2.3614,0,0,1,.7734-1.7461A.4675.4675,0,0,1,50.9814,4.6792Zm-.7383,1.8v.1318c.0283.1841.082.2759.1621.2759a.9838.9838,0,0,0,.5342-.54,3.0546,3.0546,0,0,0,.1865-.66l-.03-.0239.0117-.042v.0058l-.0117.0059h-.0244c-.0273,0-.042-.0161-.042-.0479q.0483-.0841.1084-.186a.91.91,0,0,0,.0176-.1562A.3461.3461,0,0,0,51.06,4.98h-.0479c-.1279,0-.3125.1977-.5517.5937A2.4986,2.4986,0,0,0,50.2431,6.48Zm1.1465.5459h.0537v.0659H51.39Z"/><path class="aabf66db-187d-4d3e-bd74-1a073dbfefb2" d="M53.3329,4.0791a.1614.1614,0,0,1,.126.1621q.0191.5282.0186.6724c-.0118.18-.0186.2719-.0186.2759a4.0169,4.0169,0,0,1,.6367-.0962c.1153.0161.1739.0683.1739.1562a.5112.5112,0,0,1-.378.1978c-.0078,0-.1543.0239-.4385.0722q-.041.504-.0537,1.11,0,.0175.0176.12.312-.1085.78-.9722h.0957a3.5589,3.5589,0,0,1-.5938,1.1519.8428.8428,0,0,1-.24.1924q0,.0417-.1435.0718c-.084,0-.1758-.084-.2764-.252l.0185-.0361a1.118,1.118,0,0,1-.03-.2759q0-.3361.0595-1.05l-.0713.0244-.2158.06h-.1621q-.391-.0543-.3906-.1621V5.4292l.1924.0361a2.6927,2.6927,0,0,0,.666-.1557q.06-1.23.1924-1.23Z"/><path class="aabf66db-187d-4d3e-bd74-1a073dbfefb2" d="M56.1894,3.3535a.4149.4149,0,0,1,.3535.4678v.18a.6341.6341,0,0,1-.0176.1377.3174.3174,0,0,0,.0781.1381v.0718a.1476.1476,0,0,1-.1386.0723c0-.0278-.0635-.0581-.1914-.09a1.2428,1.2428,0,0,0-.03-.27.2058.2058,0,0,0,.03-.09q0-.2937-.1319-.294h-.0068q-.233.15-.2334,1.4761a.5807.5807,0,0,1,.4375.1441v.0239c0,.084-.1533.126-.4619.126h-.0235q-.3178,2.9883-.3183,3h-.0059l.0176.0361a.5264.5264,0,0,1-.2637.186.3288.3288,0,0,1-.1982-.12l.0185-.0361a3.2563,3.2563,0,0,1-.1445-.54H55.02a2.407,2.407,0,0,0,.2158.3243h-.0186v.0058q.0909-.7976.294-2.8437l-.0537-.0122h-.2159q-.6065,0-.6064-.1919h.0361a.2914.2914,0,0,1,.1319-.03,5.2234,5.2234,0,0,0,.7265-.042,6.8882,6.8882,0,0,1,.1983-1.47A.499.499,0,0,1,56.1894,3.3535Z"/><path class="aabf66db-187d-4d3e-bd74-1a073dbfefb2" d="M58.1025,4.6792h.0127c.3671,0,.5839.3.6474.9a1.7239,1.7239,0,0,1-.8515,1.62.9779.9779,0,0,0-.1924.03q-.5757,0-.7022-.9483l-.0176-.186h.042c0,.0239-.0146.0361-.042.0361a1.8877,1.8877,0,0,1,.4561-1.29.8915.8915,0,0,1,.3359-.1738C57.9823,4.6753,58.0868,4.6792,58.1025,4.6792Zm-.8213,1.3921q0,.7141.42.81h.0234a.8858.8858,0,0,0,.5586-.4741,2.01,2.01,0,0,0,.1973-.792q-.0719-.684-.3779-.684h-.1856q-.372.06-.3721.1679A1.7348,1.7348,0,0,0,57.2812,6.0713Z"/><path class="aabf66db-187d-4d3e-bd74-1a073dbfefb2" d="M59.8066,4.6792h.0664a.4172.4172,0,0,0,.0595.0483V4.6792h.0782a.4112.4112,0,0,1,.18.3359c.0126.1084.0185.1783.0185.21,0,.0483-.0107.186-.03.4141h-.0781q.3486-.57.42-.6538l.084-.066v-.018l-.03-.06.0664-.0478h.0245V4.77H60.73c.02,0,.03.002.03.0059l.0117-.0059c.1045.0279.2158.1719.3359.4317l.2227.5639v.09c-.0283,0-.0508.0659-.0664.1977h-.0782c-.0957,0-.1894-.1059-.2822-.3178h.0244l-.2216-.606h-.0245a2.9118,2.9118,0,0,0-.5283.9419,2.3654,2.3654,0,0,0-.12.5581q-.186.5457-.4014.5459l-.0722-.1441V6.9653a12.7468,12.7468,0,0,0,.2939-1.728V5.0815H59.86a4.12,4.12,0,0,0-.51.1978h-.0664c-.0478,0-.0713-.0317-.0713-.0962.2842-.2759.48-.4136.5879-.4136l.0059.0059Z"/><path class="aabf66db-187d-4d3e-bd74-1a073dbfefb2" d="M61.6425,4.6675a3.1289,3.1289,0,0,1,.4082.2041.5594.5594,0,0,1,.2578.5517v.1861H62.29q.4261-.6783.5468-.6782l.0655-.066c.0556.0362.0664.0542.03.0542V4.8833l-.0185-.06.06-.03.084.0659h-.0478V4.77h.042c.0361,0,.0537.0117.0537.0357l.0244-.0117a.3888.3888,0,0,1,.2392.354c.0205,0,.03.0678.03.2041h-.0176a1.7906,1.7906,0,0,0,.1914-.4082l.0967-.1143v.0181c.0274-.0357.05-.0537.0655-.0537l-.0118-.0962h.042A.0948.0948,0,0,1,63.82,4.71V4.6733h.0606c.0351,0,.0537.0122.0537.0362l.0059-.0064q.2636.1926.18,1.1343l.0186.4619.0059.0239v.1622a1.0662,1.0662,0,0,0,.0244.2158h.0175l.1739-.18h.0664a.5547.5547,0,0,1-.1621.4077l-.0362.06a.2154.2154,0,0,1,.0118.0781.488.488,0,0,1-.1377.0718q-.3-.1077-.3-.792.0059-1.17.0058-1.2657c-.0117-.0244-.0185-.0341-.0185-.03h.0068a2.7969,2.7969,0,0,0-.4688,1.1162c-.0751.5639-.2021.8457-.3779.8457,0-.02-.0254-.0576-.0781-.1138V6.75q.1743-1.0678.2041-1.41v-.042c0-.1-.0176-.15-.0537-.15q-.4438,0-.7559,1.26-.1142.8226-.3965.8223a.212.212,0,0,0-.0781-.1382q.2051-1.4215.2041-1.668a.87.87,0,0,0-.2754-.57l-.1318-.1084C61.5966,4.6934,61.6142,4.6675,61.6425,4.6675Z"/></svg>