<svg id="e013beca-80b3-43c0-ac2c-af271d5f7964" data-name="图层 1" xmlns="http://www.w3.org/2000/svg" xmlns:xlink="http://www.w3.org/1999/xlink" viewBox="0 0 32.36 20"><defs><style>.a623af2c-2ea0-4d0c-bc51-f36923cf4933{fill:url(#e7d5da57-248d-4b5e-8505-68b1ad15e450);}.b37ad342-f9dc-44e3-b87d-6fceaaf23b4c{fill:#fff;}</style><linearGradient id="e7d5da57-248d-4b5e-8505-68b1ad15e450" x1="0.1009" y1="10" x2="32.4609" y2="10" gradientUnits="userSpaceOnUse"><stop offset="0.0109" stop-color="#1d2088"/><stop offset="1" stop-color="#00a29a"/></linearGradient></defs><rect class="a623af2c-2ea0-4d0c-bc51-f36923cf4933" width="32.36" height="20" rx="3"/><path class="b37ad342-f9dc-44e3-b87d-6fceaaf23b4c" d="M6.0684,2.3232a.16.16,0,0,0,.04.0171.4005.4005,0,0,0,.1079-.0171.8631.8631,0,0,1,.6157.1485q0,.1705-.393.1709h-.08l.0288.1084a.31.31,0,0,0-.0342.16V2.939a17.6827,17.6827,0,0,1-.1826,2.7246c-.0039,0-.0059.0058-.0059.0171a3.3321,3.3321,0,0,0,.3706-.0284.5308.5308,0,0,1,.4332.1939l-.0909.1025q-.405.017-.6328.0171H5.6636a1.1052,1.1052,0,0,1-.3819-.0913V5.7661a.6367.6367,0,0,0,.16-.0283c.0532.0112.0815.0171.0855.0171a2.2657,2.2657,0,0,0,.3706-.04A.8849.8849,0,0,0,5.88,5.5156l.1767-2.8218c-.0078-.0493-.0195-.0742-.0346-.0742H5.96q-.6387-.0336-.7012-.1709.0285-.0512.3364-.08l.0625.0171A1.8858,1.8858,0,0,0,6.0684,2.3232Z"/><path class="b37ad342-f9dc-44e3-b87d-6fceaaf23b4c" d="M7.4761,3.5659c.0229,0,.0342.002.0342.0059l.0058-.0059h.023q.057.0572.0854.0571l.0571-.0112a.6957.6957,0,0,1,.2163.6782L8.16,3.8794q0-.0227.12-.1309V3.72H8.354V3.7026h.1025V3.6973L8.44,3.646l.08-.0571c0,.0381.0034.059.0113.0625l.0112-.0342a.5908.5908,0,0,1,.291.5415,2.1859,2.1859,0,0,1,.0283.3594q-.0168.416-.0171.7749l.0059.1543q.0968,0,.2847-.314H9.186v.0459a.6874.6874,0,0,1-.2221.53q0,.04-.1538.103-.2278,0-.2906-.3594c.0074-.0683.0113-.1157.0113-.1425q0-.2675.0341-.8833,0-.4674-.0966-.4673-.2512,0-.5586.9175-.16,1.0664-.3252,1.0659A.1221.1221,0,0,1,7.522,5.96c-.0762-.0723-.1143-.1309-.1143-.1768a13.2175,13.2175,0,0,0,.1939-1.687q.0453-.285-.0913-.2852l-.0855-.1255V3.64C7.4248,3.5908,7.4419,3.5659,7.4761,3.5659Z"/><path class="b37ad342-f9dc-44e3-b87d-6fceaaf23b4c" d="M10.5542,2.9849a.1523.1523,0,0,1,.12.1538q.0175.5016.0171.6382c-.0112.1709-.0171.2583-.0171.2622a3.8719,3.8719,0,0,1,.6045-.0913q.1648.0234.1651.1484a.4852.4852,0,0,1-.3589.188q-.0117,0-.416.0683-.04.4791-.0513,1.0547a1.0543,1.0543,0,0,0,.0171.1138q.2958-.1026.7407-.9233h.0913a3.4044,3.4044,0,0,1-.5644,1.0942.7951.7951,0,0,1-.2281.1826c0,.0269-.0454.0493-.1367.0684q-.1194,0-.2622-.2393l.0171-.0342a1.083,1.083,0,0,1-.0283-.2622q0-.3193.0571-.9975l-.0688.0229-.2051.0567H9.8931q-.3706-.0513-.3706-.1539V4.2671l.1826.0342a2.5387,2.5387,0,0,0,.6328-.148q.0564-1.1689.1821-1.1684Z"/><path class="b37ad342-f9dc-44e3-b87d-6fceaaf23b4c" d="M12.9653,3.5659q.3765.0857.376.5532,0,.6438-1.0371.8663c0,.0493-.023.0742-.0684.0742H12.15a.7766.7766,0,0,0-.0117.1084q.0513.49.3593.49c0,.0117.0264.0171.08.0171h.0171A1.7659,1.7659,0,0,0,13.49,5.35v.0684a1.5581,1.5581,0,0,1-.8208.5131l-.228.0342-.08-.0459c.0415,0,.0625.0171.0625.0513a.682.682,0,0,1-.416-.2393,1.1862,1.1862,0,0,1-.1655-.5815c.0078-.14.0171-.2105.0288-.2105a.654.654,0,0,1-.02-.1142c-.0137-.0874-.0088-.1309.0141-.1309h.0454q.006,0,.2281-.5473A1.0345,1.0345,0,0,1,12.9653,3.5659Zm-.7182,1.1572V4.74h-.1026q.8548-.2622.855-.5986V4.0732c0-.0947-.042-.1425-.1255-.1425a.89.89,0,0,0-.4844.4277A1.1955,1.1955,0,0,0,12.2471,4.7231Z"/><path class="b37ad342-f9dc-44e3-b87d-6fceaaf23b4c" d="M13.9688,2.2949h.0737a2.16,2.16,0,0,0,.3423.16H14.248V2.38h.1026c0,.0459-.0137.0683-.04.0683V2.3975h.1084l.0059.04h-.0059q.1026,0,.1368.5645,0,.1934-.148,2.4965h-.0742a3.9276,3.9276,0,0,0,.5195-.7241h.1016a3.7433,3.7433,0,0,1-.49.9976H14.459l.0054.0171v.0683a.113.113,0,0,0-.0914.0572.1476.1476,0,0,0-.1079.0454H14.18c-.0308,0-.0781-.0494-.1426-.148l.0225-.1372a.1.1,0,0,0-.0171-.0513l.2226-2.6958a.54.54,0,0,1-.0171-.12l.0171-.1025a1.9191,1.9191,0,0,0-.2963-.3482Z"/><path class="b37ad342-f9dc-44e3-b87d-6fceaaf23b4c" d="M15.4106,2.2949h.0743a2.1422,2.1422,0,0,0,.3418.16H15.69V2.38h.1026c0,.0459-.0137.0683-.04.0683V2.3975h.1084l.0059.04h-.0059q.1026,0,.1368.5645,0,.1934-.1485,2.4965h-.0742a3.9043,3.9043,0,0,0,.5195-.7241h.1026a3.7736,3.7736,0,0,1-.49.9976h-.0058l.0058.0171v.0683a.1131.1131,0,0,0-.0918.0572.1479.1479,0,0,0-.1084.0454h-.0849c-.03,0-.0781-.0494-.1426-.148l.0225-.1372a.1089.1089,0,0,0-.0166-.0513l.2216-2.6958a.6.6,0,0,1-.0166-.12l.0166-.1025a1.9,1.9,0,0,0-.2959-.3482Z"/><path class="b37ad342-f9dc-44e3-b87d-6fceaaf23b4c" d="M17.7988,4.0107c.1026.0762.1533.1275.1533.1539q-.1479,1.2142-.1474,1.3393h-.0059a3.4381,3.4381,0,0,0,.4444-.9463H18.34v.0513A2.2581,2.2581,0,0,1,17.9414,5.8a.52.52,0,0,1-.3027.16c-.0645-.0494-.0967-.08-.0967-.0913-.0078,0-.0283-.03-.0625-.0909l.0342-.0571V5.6865c0,.0039-.0117.0054-.0342.0054.0117-.08.0283-.169.0508-.2676,0,.0913-.0166.1367-.0508.1367l.0166-.1084V5.4072a7.0618,7.0618,0,0,1,.1484-1.0488h.0967a2.2823,2.2823,0,0,1-.6836.3877h-.0854a.0608.0608,0,0,1-.0684-.0684.2025.2025,0,0,1,.1079-.0971q.0864.0461,0,.0459l.3819-.274a.7564.7564,0,0,1,.2451-.1767C17.7109,4.0659,17.7646,4.0107,17.7988,4.0107Zm-.49-.9062.0283.0112a.1253.1253,0,0,1,.0625-.0112.6828.6828,0,0,1,.1768.0454l.0742-.0171q.45.1883.45.4673l-.1143.0684A2.9444,2.9444,0,0,0,17.2,3.2241V3.127Z"/><path class="b37ad342-f9dc-44e3-b87d-6fceaaf23b4c" d="M19.64,3.5547h.0284q.2622,0,.3076.3476l.0117.08.0625-.0112c.0986,0,.1484.0913.1484.2734a1.6578,1.6578,0,0,1,0,.5245,8.6692,8.6692,0,0,1-.2275,1.95c-.1182.163-.2148.2451-.291.2451,0,.019-.044.04-.1309.0625a.8323.8323,0,0,1-.4277-.1309.4926.4926,0,0,1-.1885-.4336V6.4443q0-.49.958-1.4648l.0166-.0684a.993.993,0,0,1,.0635-.3759l-.3135.3588A2.0163,2.0163,0,0,1,19.27,5.19a.658.658,0,0,1-.1367.0171h-.0117c-.1221,0-.2051-.0967-.251-.29,0-.0151.0039-.023.0117-.023L18.87,4.8428V4.7a1.4607,1.4607,0,0,1,.5645-1.083A.8026.8026,0,0,1,19.64,3.5547Zm-.5068,1.2085.0391.1938a1.2666,1.2666,0,0,0,.6162-.5532c0-.0034.0244-.0532.0742-.1479V4.25c-.0644-.3076-.124-.4619-.1768-.4619q-.246,0-.496.6387A2.0913,2.0913,0,0,0,19.1328,4.7632ZM19.19,6.4219v.0224a.282.282,0,0,0,.2568.2911q.3867,0,.4443-1.585V5.105A2.5147,2.5147,0,0,0,19.19,6.4219Z"/><path class="b37ad342-f9dc-44e3-b87d-6fceaaf23b4c" d="M21.748,3.5659q.3765.0857.377.5532,0,.6438-1.0381.8663c0,.0493-.0224.0742-.0683.0742h-.085a.7766.7766,0,0,0-.0117.1084q.0513.49.3593.49c0,.0117.0264.0171.08.0171h.0166a1.7648,1.7648,0,0,0,.8946-.3247v.0684a1.5556,1.5556,0,0,1-.82.5131l-.2285.0342L21.1445,5.92c.042,0,.0625.0171.0625.0513a.6794.6794,0,0,1-.416-.2393,1.1854,1.1854,0,0,1-.165-.5815c.0068-.14.0166-.2105.0283-.2105a.6665.6665,0,0,1-.02-.1142c-.0127-.0874-.0078-.1309.0146-.1309h.0459q.0045,0,.2276-.5473A1.0346,1.0346,0,0,1,21.748,3.5659ZM21.03,4.7231V4.74h-.1026q.8554-.2622.8545-.5986V4.0732c0-.0947-.041-.1425-.125-.1425a.888.888,0,0,0-.4843.4277A1.2085,1.2085,0,0,0,21.03,4.7231Z"/><path class="b37ad342-f9dc-44e3-b87d-6fceaaf23b4c" d="M22.8262,3.5659c.0224,0,.0342.002.0342.0059l.0058-.0059h.0225q.0572.0572.0849.0571l.0576-.0112a.6955.6955,0,0,1,.2168.6782l.2618-.4106q0-.0227.12-.1309V3.72h.0742V3.7026h.1025V3.6973l-.0175-.0513.08-.0571c0,.0381.0039.059.0118.0625l.0107-.0342a.59.59,0,0,1,.291.5415,2.1859,2.1859,0,0,1,.0283.3594c-.0117.2773-.0166.5356-.0166.7749l.0049.1543c.0645,0,.16-.1045.2852-.314h.0517v.0459a.6878.6878,0,0,1-.2226.53c0,.0268-.0508.061-.1533.103q-.2286,0-.2911-.3594c.0079-.0683.0118-.1157.0118-.1425,0-.1783.0107-.4732.0341-.8833,0-.3116-.0332-.4673-.0976-.4673q-.25,0-.5586.9175-.16,1.0664-.3242,1.0659a.1243.1243,0,0,1-.0635.0171c-.0752-.0723-.1133-.1309-.1133-.1768a13.2824,13.2824,0,0,0,.1934-1.687q.0453-.285-.0908-.2852l-.086-.1255V3.64C22.7744,3.5908,22.792,3.5659,22.8262,3.5659Z"/><path class="b37ad342-f9dc-44e3-b87d-6fceaaf23b4c" d="M25.9043,2.9849a.1528.1528,0,0,1,.1191.1538q.0177.5016.0176.6382-.0176.2563-.0176.2622a3.8526,3.8526,0,0,1,.6045-.0913c.11.0156.1651.0649.1651.1484a.4845.4845,0,0,1-.3594.188q-.01,0-.416.0683-.04.4791-.0508,1.0547c0,.0113.0059.0493.0166.1138q.2973-.1026.7412-.9233h.0908a3.4065,3.4065,0,0,1-.5634,1.0942.7918.7918,0,0,1-.2286.1826c0,.0269-.0459.0493-.1367.0684-.08,0-.167-.08-.2617-.2393l.0166-.0342a1.1085,1.1085,0,0,1-.0283-.2622q0-.3193.0566-.9975l-.0683.0229-.2051.0567h-.1543c-.2461-.0342-.37-.0855-.37-.1539V4.2671l.1826.0342a2.5505,2.5505,0,0,0,.6328-.148q.0572-1.1689.1826-1.1684Z"/><path class="b37ad342-f9dc-44e3-b87d-6fceaaf23b4c" d="M7.94,7.2837c0,.0264.0435.0684.1309.125a2.1885,2.1885,0,0,1,.0913.7471v.1425q0,.6044-.16,2.3081l-.0112-.0224a8.8175,8.8175,0,0,0,1.1743-.1426q.5069.0117.5069.08c0,.0117.0117.0288.0346.0513v.0571q-.0973.16-.456.16c-.023,0-.0342-.002-.0342-.0059l-.0059.0059H9.1489q-.0974,0-1.1689.1255a.272.272,0,0,0-.1367.0454H7.792a.36.36,0,0,1-.1939-.2852,7.2375,7.2375,0,0,0,.1768-1.2764,9.0967,9.0967,0,0,0,.1084-1.2768V8.0645q0-.1311-.0171-.3765L7.8833,7.66a1.83,1.83,0,0,0-.0742-.2964.1644.1644,0,0,0,.0117-.0625h.0513C7.8755,7.2891,7.8984,7.2837,7.94,7.2837Z"/><path class="b37ad342-f9dc-44e3-b87d-6fceaaf23b4c" d="M11.2178,8.5659q.3765.0857.376.5532,0,.6438-1.0372.8663c0,.0493-.0229.0742-.0683.0742h-.0855a.7766.7766,0,0,0-.0117.1084q.0513.49.3594.49c0,.0117.0264.0171.08.0171h.0171a1.7662,1.7662,0,0,0,.895-.3247v.0684a1.5585,1.5585,0,0,1-.8208.5131l-.228.0342-.08-.0459c.0415,0,.0625.0171.0625.0513a.6815.6815,0,0,1-.416-.2393,1.1853,1.1853,0,0,1-.1656-.5815c.0078-.14.0171-.21.0288-.21a.654.654,0,0,1-.02-.1142c-.0137-.0874-.0088-.1309.0142-.1309h.0454q.0058,0,.228-.5473A1.0348,1.0348,0,0,1,11.2178,8.5659ZM10.5,9.7231V9.74H10.397q.8547-.2622.855-.5986V9.0732c0-.0947-.042-.1425-.1255-.1425a.8894.8894,0,0,0-.4844.4277A1.1969,1.1969,0,0,0,10.5,9.7231Z"/><path class="b37ad342-f9dc-44e3-b87d-6fceaaf23b4c" d="M13.0815,8.5547h.0855q.24,0,.2964.5185.0857,0,.0859.2911a5.1019,5.1019,0,0,0,.1651.9458A2.7205,2.7205,0,0,1,13.8,9.9282h.0459l.0454.5987.0625.0112c0,.0762-.0073.1142-.0224.1142l.0112.0225a.71.71,0,0,0-.1367.2681l-.0743.0229q-.2051-.0513-.205-.12l.0171-.08a.3989.3989,0,0,0-.0914-.0054v-.04l.0342-.0513v-.0117a1.6453,1.6453,0,0,1-.188-.4785,1.5029,1.5029,0,0,1-.61.7808c-.0874.0078-.16.0112-.2168.0112H12.46a.4512.4512,0,0,1-.3247-.4273,1.4946,1.4946,0,0,1-.017-.228,2.2406,2.2406,0,0,1,.7348-1.6587A.4415.4415,0,0,1,13.0815,8.5547Zm-.7011,1.71V10.39q.04.2622.1543.2622a.936.936,0,0,0,.5073-.5131,2.8956,2.8956,0,0,0,.1768-.627L13.19,9.4893l.0113-.04v.0054l-.0113.0058H13.167q-.04,0-.04-.0454c.03-.0532.0645-.1123.1026-.1767a.8655.8655,0,0,0,.0171-.1485.3261.3261,0,0,0-.0913-.25H13.11q-.1824,0-.5245.564A2.3856,2.3856,0,0,0,12.38,10.2646Zm1.0888.5186h.0513v.063h-.0513Z"/><path class="b37ad342-f9dc-44e3-b87d-6fceaaf23b4c" d="M14.9448,8.5547h.0635a.4808.4808,0,0,0,.0566.0454V8.5547H15.14a.3915.3915,0,0,1,.17.3193q.0175.1539.0175.1992c0,.0459-.01.1768-.0293.3936h-.0742c.2207-.3613.3535-.5684.4-.6216l.0781-.0625V8.7656l-.0273-.0571.0625-.0454h.0234V8.64h.0625c.0176,0,.0274.002.0274.0059l.0117-.0059c.1.0269.2051.1636.32.41l.2109.5361v.0855c-.0273,0-.0488.0625-.0625.188h-.0742q-.1377,0-.27-.3023h.0234L15.8,8.9819h-.0234a2.7689,2.7689,0,0,0-.5.8951,2.2272,2.2272,0,0,0-.1153.53q-.1758.5186-.3808.5186l-.0684-.1367v-.0625a12.4947,12.4947,0,0,0,.2793-1.6416V8.9365h.0049a3.7766,3.7766,0,0,0-.4844.188H14.45c-.0459,0-.0684-.03-.0684-.0913q.4044-.3933.5586-.3931l.0049.0059Z"/><path class="b37ad342-f9dc-44e3-b87d-6fceaaf23b4c" d="M16.8208,8.5659c.0225,0,.0342.002.0342.0059l.0058-.0059h.0225q.0572.0572.085.0571l.0571-.0112a.6958.6958,0,0,1,.2168.6782l.2617-.4106q0-.0227.12-.1309V8.72h.0742V8.7026h.1026V8.6973l-.0176-.0513.08-.0571c0,.0381.0039.059.0117.0625l.0107-.0342a.59.59,0,0,1,.2911.5415,2.1859,2.1859,0,0,1,.0283.3594c-.0117.2773-.0166.5356-.0166.7749l.0049.1543c.0644,0,.16-.1045.2851-.314H18.53v.0459a.6875.6875,0,0,1-.2227.53c0,.0268-.0508.061-.1533.103q-.2285,0-.291-.3594c.0078-.0683.0117-.1157.0117-.1425,0-.1783.0107-.4732.0342-.8833,0-.3116-.0332-.4673-.0977-.4673q-.25,0-.5586.9175-.16,1.0663-.3237,1.0659a.1238.1238,0,0,1-.0635.0171c-.0752-.0723-.1133-.1309-.1133-.1768a13.2824,13.2824,0,0,0,.1934-1.687q.0455-.285-.0908-.2852l-.086-.1255V8.64C16.769,8.5908,16.7866,8.5659,16.8208,8.5659Z"/><path class="b37ad342-f9dc-44e3-b87d-6fceaaf23b4c" d="M19.8926,9.0107c.1025.0762.1533.1275.1533.1539q-.1479,1.2142-.1475,1.3393h-.0058a3.4381,3.4381,0,0,0,.4443-.9463h.0967v.0513A2.2581,2.2581,0,0,1,20.0352,10.8a.52.52,0,0,1-.3028.16c-.0644-.0494-.0967-.08-.0967-.0913-.0078,0-.0283-.03-.0625-.0909l.0342-.0571v-.0342c0,.0039-.0117.0054-.0342.0054.0118-.08.0284-.169.0508-.2676,0,.0913-.0166.1367-.0508.1367l.0166-.1084v-.0454a7.0526,7.0526,0,0,1,.1485-1.0488h.0967a2.2836,2.2836,0,0,1-.6836.3877h-.086a.0607.0607,0,0,1-.0683-.0684.2016.2016,0,0,1,.1084-.0971q.0864.046,0,.0459l.3818-.274a.7577.7577,0,0,1,.2451-.1767C19.8047,9.0659,19.8584,9.0107,19.8926,9.0107Zm-.49-.9062.0284.0112a.1253.1253,0,0,1,.0625-.0112A.6834.6834,0,0,1,19.67,8.15l.0742-.0171q.45.1883.45.4673l-.1142.0684a2.9432,2.9432,0,0,0-.7862-.4444V8.127Z"/><path class="b37ad342-f9dc-44e3-b87d-6fceaaf23b4c" d="M21.084,8.5659c.0224,0,.0342.002.0342.0059l.0058-.0059h.0225q.0572.0572.0849.0571l.0577-.0112a.696.696,0,0,1,.2168.6782l.2617-.4106q0-.0227.12-.1309V8.72h.0742V8.7026h.1026V8.6973l-.0176-.0513.08-.0571c0,.0381.0039.059.0117.0625l.0107-.0342a.59.59,0,0,1,.291.5415,2.1909,2.1909,0,0,1,.0284.3594c-.0118.2773-.0167.5356-.0167.7749l.0049.1543c.0645,0,.16-.1045.2852-.314h.0517v.0459a.6878.6878,0,0,1-.2226.53c0,.0268-.0508.061-.1533.103q-.2286,0-.291-.3594c.0078-.0683.0117-.1157.0117-.1425,0-.1783.0107-.4732.0342-.8833,0-.3116-.0333-.4673-.0977-.4673q-.25,0-.5586.9175-.16,1.0663-.3242,1.0659a.1241.1241,0,0,1-.0635.0171c-.0752-.0723-.1133-.1309-.1133-.1768a13.2824,13.2824,0,0,0,.1934-1.687q.0454-.285-.0908-.2852l-.086-.1255V8.64C21.0322,8.5908,21.05,8.5659,21.084,8.5659Z"/><path class="b37ad342-f9dc-44e3-b87d-6fceaaf23b4c" d="M23.9336,8.5547h.0283q.2622,0,.3076.3476l.0117.08.0626-.0112c.0986,0,.1484.0913.1484.2734a1.6578,1.6578,0,0,1,0,.5245,8.6771,8.6771,0,0,1-.2276,1.95c-.1181.163-.2148.2451-.291.2451,0,.0195-.0439.039-.1308.0625a.8375.8375,0,0,1-.4278-.1309.4932.4932,0,0,1-.1884-.4336v-.0176q0-.4892.958-1.4648l.0166-.0684a.995.995,0,0,1,.0634-.3759l-.3134.3588a2.02,2.02,0,0,1-.3877.2964.658.658,0,0,1-.1367.0171H23.415c-.122,0-.205-.0967-.2509-.29,0-.0151.0039-.023.0117-.023l-.0117-.0512V9.7a1.4606,1.4606,0,0,1,.5644-1.083A.8028.8028,0,0,1,23.9336,8.5547Zm-.5068,1.2085.039.1938a1.2662,1.2662,0,0,0,.6162-.5532c0-.0034.0244-.0532.0742-.1479V9.25c-.0644-.3076-.124-.4619-.1767-.4619q-.2462,0-.4961.6387A2.0806,2.0806,0,0,0,23.4268,9.7632Zm.0566,1.6587v.0224a.2811.2811,0,0,0,.2568.2911q.3867,0,.4444-1.585V10.105A2.516,2.516,0,0,0,23.4834,11.4219Z"/><path class="b37ad342-f9dc-44e3-b87d-6fceaaf23b4c" d="M7.4473,12.29c.0493,0,.1577.0059.3252.0166a.105.105,0,0,1,.0512-.0166,3.0913,3.0913,0,0,1,1.231.3643l.2392.2227a1.0553,1.0553,0,0,1,.063.4042,1.1768,1.1768,0,0,1-.4673.667,1.9333,1.9333,0,0,1-1.0776.3077,4.4821,4.4821,0,0,1-.188,1.6191c-.042.05-.07.0742-.0854.0742q-.1253,0-.1255-.4277a11.1919,11.1919,0,0,1,.1025-1.3223c-.03,0-.0454-.0176-.0454-.0517v-.0342h.0513q.04-.4161.2339-1.6524-.4621-.0512-.4619-.1377A.3565.3565,0,0,1,7.4473,12.29Zm.5131.2217V12.501q0,.3809-.1254,1.5732a2.07,2.07,0,0,0,.9746-.49.8993.8993,0,0,0,.2168-.4219Q9.0264,12.7914,7.96,12.5117Z"/><path class="b37ad342-f9dc-44e3-b87d-6fceaaf23b4c" d="M9.8413,12.2959H9.915a2.1923,2.1923,0,0,0,.3423.1592h-.1367v-.0742h.1025c0,.0459-.0136.0683-.04.0683v-.0517h.1084l.0059.04h-.0059q.1026,0,.1367.5645,0,.1947-.1479,2.497h-.0742a3.8886,3.8886,0,0,0,.5185-.7236h.1025a3.74,3.74,0,0,1-.49.9971h-.0054l.0054.0166v.0693a.1123.1123,0,0,0-.0913.0566.1447.1447,0,0,0-.1079.0459h-.0855c-.0307,0-.0781-.05-.1425-.1484l.0224-.1367a.1005.1005,0,0,0-.0171-.0518l.2227-2.6963a.5324.5324,0,0,1-.0171-.1191l.0171-.1025a1.8869,1.8869,0,0,0-.2964-.3477Z"/><path class="b37ad342-f9dc-44e3-b87d-6fceaaf23b4c" d="M12.1436,13.5547h.0854c.16,0,.2588.1738.2964.5195q.0856,0,.0859.29a5.0819,5.0819,0,0,0,.1651.9462,2.7041,2.7041,0,0,1,.0854-.3818h.0459l.0454.5986.0625.0118c0,.0761-.0073.1132-.0224.1132l.0112.0235a.7016.7016,0,0,0-.1367.2676l-.0742.0224c-.1368-.0342-.2051-.0732-.2051-.1191l.0171-.08a.355.355,0,0,0-.0913-.0059v-.04l.0341-.0508v-.0117A1.6472,1.6472,0,0,1,12.36,15.18a1.5064,1.5064,0,0,1-.61.7812c-.0874.0069-.16.0108-.2168.0108h-.0112a.4512.4512,0,0,1-.3247-.4278,1.4664,1.4664,0,0,1-.0171-.2275,2.2423,2.2423,0,0,1,.7348-1.6592A.4414.4414,0,0,1,12.1436,13.5547Zm-.7012,1.71v.126c.0268.1748.0781.2617.1543.2617a.9331.9331,0,0,0,.5073-.5127,2.8929,2.8929,0,0,0,.1768-.6269L12.252,14.49l.0112-.04v.0059l-.0112.0048h-.023c-.0264,0-.0395-.0146-.0395-.0449.03-.0537.0644-.1123.1025-.1767a.86.86,0,0,0,.0171-.1485.328.328,0,0,0-.0913-.251h-.0454q-.1824,0-.5245.5645A2.3811,2.3811,0,0,0,11.4424,15.2646Zm1.0888.52h.0513v.0625h-.0513Z"/><path class="b37ad342-f9dc-44e3-b87d-6fceaaf23b4c" d="M14.3779,12.9854a.1526.1526,0,0,1,.12.1533c.0117.3349.017.5478.017.6386-.0112.1709-.017.2588-.017.2627a3.7048,3.7048,0,0,1,.6045-.0918c.11.0157.165.0645.165.1485a.4865.4865,0,0,1-.3594.1885c-.0078,0-.1465.0224-.4155.0683q-.04.4776-.0513,1.0537a1.04,1.04,0,0,0,.0171.1143q.2959-.1026.7407-.9229H15.29a3.4069,3.4069,0,0,1-.5635,1.0938.815.815,0,0,1-.2285.1826c0,.0264-.0455.05-.1368.0684-.08,0-.167-.08-.2622-.2393l.0171-.0342a1.0871,1.0871,0,0,1-.0283-.2627c0-.2119.019-.5449.0571-.997l-.0688.0224-.2051.0576h-.1538c-.2471-.0341-.3706-.0859-.3706-.1543v-.0683l.1826.0342a2.5161,2.5161,0,0,0,.6328-.1485q.0564-1.1675.1822-1.1679Z"/><path class="b37ad342-f9dc-44e3-b87d-6fceaaf23b4c" d="M17.0908,12.2959a.3936.3936,0,0,1,.336.4443v.1709a.625.625,0,0,1-.0166.1309.2923.2923,0,0,0,.0742.1309v.0683a.1406.1406,0,0,1-.1319.0684q0-.04-.1816-.085a1.1274,1.1274,0,0,0-.0293-.2568.1832.1832,0,0,0,.0293-.085c0-.1865-.042-.2793-.126-.2793h-.0058q-.2205.142-.2212,1.4024a.5527.5527,0,0,1,.4155.1367v.0224q0,.12-.439.12H16.772q-.3018,2.8374-.3018,2.85h-.0058l.0166.0341a.5022.5022,0,0,1-.251.1768.3121.3121,0,0,1-.1875-.1143l.0166-.0341a3.1221,3.1221,0,0,1-.1367-.5127H15.98a2.18,2.18,0,0,0,.2051.3076h-.0176v.0058q.0864-.7587.2793-2.7021l-.0508-.0107h-.2051c-.3838,0-.5762-.0616-.5762-.1827h.0342a.2719.2719,0,0,1,.126-.0283,5.0453,5.0453,0,0,0,.69-.04,6.6274,6.6274,0,0,1,.1875-1.3965A.475.475,0,0,1,17.0908,12.2959Z"/><path class="b37ad342-f9dc-44e3-b87d-6fceaaf23b4c" d="M18.9082,13.5547H18.92q.5244,0,.6153.8555a1.6375,1.6375,0,0,1-.8086,1.539.9664.9664,0,0,0-.1827.0283q-.5478,0-.6669-.9L17.8594,14.9h.04c0,.0225-.0127.0342-.04.0342a1.7962,1.7962,0,0,1,.4336-1.2256.8465.8465,0,0,1,.3193-.1651C18.7949,13.5518,18.8936,13.5547,18.9082,13.5547Zm-.78,1.3232c0,.4522.1328.708.3985.77H18.55a.8448.8448,0,0,0,.53-.4512,1.9109,1.9109,0,0,0,.1875-.752c-.0459-.4336-.1651-.6494-.3594-.6494h-.1758c-.2363.0381-.3535.0908-.3535.1592A1.64,1.64,0,0,0,18.1279,14.8779Z"/><path class="b37ad342-f9dc-44e3-b87d-6fceaaf23b4c" d="M20.5273,13.5547H20.59a.3717.3717,0,0,0,.0577.0459v-.0459h.0742a.3938.3938,0,0,1,.1709.3193c.0107.1026.0166.169.0166.2,0,.0449-.01.1768-.0283.3926h-.0743q.3311-.5406.3995-.6211l.0791-.0625v-.0176l-.0284-.0566.0625-.0459h.0235v-.0225h.0625c.0185,0,.0283.002.0283.0059l.0117-.0059q.1479.04.3193.41l.211.5361v.085c-.0274,0-.0479.0635-.0625.1885h-.0742c-.0918,0-.1807-.1006-.2686-.3018h.0235l-.211-.5762h-.0234a2.7716,2.7716,0,0,0-.501.8955,2.2271,2.2271,0,0,0-.1143.5293q-.1771.52-.3818.52l-.0684-.1377v-.0625a12.28,12.28,0,0,0,.2793-1.6416v-.1475h.0059a3.7553,3.7553,0,0,0-.4844.1875h-.0635c-.0449,0-.0683-.03-.0683-.0908.27-.2627.456-.3936.5586-.3936l.0058.0059Z"/><path class="b37ad342-f9dc-44e3-b87d-6fceaaf23b4c" d="M22.2715,13.5439a2.933,2.933,0,0,1,.3877.1934.5313.5313,0,0,1,.2451.5244v.1768h-.0166q.4043-.6445.5185-.6436l.0626-.0635c.0537.0342.0624.0518.0283.0518V13.749l-.0166-.0566.0566-.0293.08.0635h-.0459v-.086h.04c.0342,0,.0518.0117.0518.0342l.0224-.0117A.3689.3689,0,0,1,23.9131,14q.0293,0,.0293.1934h-.0176a1.66,1.66,0,0,0,.1826-.3877l.0908-.1084v.0175c.0264-.0341.0479-.0517.0625-.0517l-.0107-.0908h.04a.0886.0886,0,0,1,.0508.0117V13.55h.0576c.0342,0,.0508.0107.0508.0342l.0059-.0059q.25.1817.1709,1.0772l.0176.4385.0048.0234v.1533a1.0114,1.0114,0,0,0,.0235.2051h.0166l.166-.1709h.0625a.5258.5258,0,0,1-.1543.3877l-.0342.0576a.1919.1919,0,0,1,.0117.0732.47.47,0,0,1-.1308.0694c-.1905-.0694-.2852-.3194-.2852-.753q.0058-1.1118.0059-1.2021c-.0117-.0234-.0176-.0332-.0176-.0293h.0059a2.6433,2.6433,0,0,0-.4444,1.0606q-.1083.8041-.3594.8037c0-.0186-.0244-.0547-.0742-.1084v-.1426q.1656-1.0137.1934-1.34v-.039c0-.0957-.0166-.1426-.0508-.1426q-.4218,0-.7187,1.1963c-.0713.5215-.1973.7812-.376.7812a.2.2,0,0,0-.0742-.1308q.1947-1.3506.1943-1.585a.8263.8263,0,0,0-.2627-.541l-.125-.1025C22.2285,13.5684,22.2451,13.5439,22.2715,13.5439Z"/></svg>